<?xml version="1.0" encoding="UTF-8"?>
<!--Generator: Apple Native CoreSVG 341-->
<!DOCTYPE svg
PUBLIC "-//W3C//DTD SVG 1.1//EN"
       "http://www.w3.org/Graphics/SVG/1.1/DTD/svg11.dtd">
<svg version="1.1" xmlns="http://www.w3.org/2000/svg" xmlns:xlink="http://www.w3.org/1999/xlink" viewBox="0 0 20.0391 16.6504">
 <g>
  <rect height="16.6504" opacity="0" width="20.0391" x="0" y="0"/>
  <path d="M11.1287 13.5156C11.0357 13.7622 10.9863 14.029 10.9863 14.3066C10.9863 14.5807 11.0344 14.8441 11.125 15.0879L0.78125 15.0879C0.341797 15.0879 0 14.7461 0 14.3066C0 13.8672 0.341797 13.5156 0.78125 13.5156ZM19.6777 14.3066C19.6777 14.7461 19.3262 15.0879 18.9258 15.0879L15.546 15.0879C15.6359 14.8441 15.6836 14.5807 15.6836 14.3066C15.6836 14.029 15.6347 13.7622 15.5424 13.5156L18.9258 13.5156C19.3262 13.5156 19.6777 13.8672 19.6777 14.3066Z" fill="white" fill-opacity="0.85"/>
  <path d="M15.6836 14.3066C15.6836 15.5957 14.6289 16.6504 13.3398 16.6504C12.0508 16.6504 10.9863 15.5957 10.9863 14.3066C10.9863 13.0176 12.0508 11.9629 13.3398 11.9629C14.6289 11.9629 15.6836 13.0176 15.6836 14.3066ZM12.1973 14.3066C12.1973 14.9414 12.6953 15.4492 13.3398 15.4492C13.9844 15.4492 14.4824 14.9414 14.4824 14.3066C14.4824 13.6523 13.9844 13.1641 13.3398 13.1641C12.6953 13.1641 12.1973 13.6523 12.1973 14.3066Z" fill="white" fill-opacity="0.85"/>
  <path d="M4.10156 8.33984C4.10156 8.61343 4.14907 8.87691 4.23871 9.12109L0.78125 9.12109C0.341797 9.12109 0 8.7793 0 8.33984C0 7.90039 0.341797 7.54883 0.78125 7.54883L4.24272 7.54883C4.1505 7.79536 4.10156 8.06216 4.10156 8.33984ZM19.6777 8.33984C19.6777 8.7793 19.3262 9.12109 18.9258 9.12109L8.65192 9.12109C8.74155 8.87691 8.78906 8.61343 8.78906 8.33984C8.78906 8.06216 8.74012 7.79536 8.6479 7.54883L18.9258 7.54883C19.3262 7.54883 19.6777 7.90039 19.6777 8.33984Z" fill="white" fill-opacity="0.85"/>
  <path d="M8.78906 8.33984C8.78906 9.62891 7.73438 10.6934 6.44531 10.6934C5.15625 10.6934 4.10156 9.62891 4.10156 8.33984C4.10156 7.05078 5.15625 5.99609 6.44531 5.99609C7.73438 5.99609 8.78906 7.05078 8.78906 8.33984ZM5.30273 8.33984C5.30273 8.97461 5.81055 9.48242 6.44531 9.48242C7.08984 9.48242 7.58789 8.97461 7.58789 8.33984C7.58789 7.69531 7.08984 7.19727 6.44531 7.19727C5.81055 7.19727 5.30273 7.69531 5.30273 8.33984Z" fill="white" fill-opacity="0.85"/>
  <path d="M10.9863 2.37305C10.9863 2.65073 11.0357 2.91753 11.1287 3.16406L0.78125 3.16406C0.341797 3.16406 0 2.8125 0 2.37305C0 1.93359 0.341797 1.5918 0.78125 1.5918L11.1246 1.5918C11.0343 1.83598 10.9863 2.09946 10.9863 2.37305ZM19.6777 2.37305C19.6777 2.8125 19.3262 3.16406 18.9258 3.16406L15.5424 3.16406C15.6347 2.91753 15.6836 2.65073 15.6836 2.37305C15.6836 2.09946 15.6361 1.83598 15.5465 1.5918L18.9258 1.5918C19.3262 1.5918 19.6777 1.93359 19.6777 2.37305Z" fill="white" fill-opacity="0.85"/>
  <path d="M13.3398 4.7168C14.6289 4.7168 15.6836 3.66211 15.6836 2.37305C15.6836 1.08398 14.6289 0.0195312 13.3398 0.0195312C12.0508 0.0195312 10.9863 1.08398 10.9863 2.37305C10.9863 3.66211 12.0508 4.7168 13.3398 4.7168ZM13.3398 3.51562C12.6953 3.51562 12.1973 3.00781 12.1973 2.36328C12.1973 1.71875 12.6953 1.2207 13.3398 1.2207C13.9844 1.2207 14.4824 1.71875 14.4824 2.36328C14.4824 3.00781 13.9844 3.51562 13.3398 3.51562Z" fill="white" fill-opacity="0.85"/>
 </g>
</svg>
